<?xml version="1.0"?>
<svg xmlns="http://www.w3.org/2000/svg" viewBox="0 0 64 64" width="512" height="512"><g id="Outline"><g><path d="M3,20a1,1,0,0,0,1-1V5A1,1,0,0,1,5,4H43a1,1,0,0,1,1,1v6a1,1,0,0,0,2,0V5a3,3,0,0,0-3-3H5A3,3,0,0,0,2,5V19A1,1,0,0,0,3,20Z"/><path d="M61,10H49a1,1,0,0,0-1,1V34H43a3,3,0,0,0-3,3,1,1,0,0,1-1,1V37a3,3,0,0,0-3-3H29V32H43a3,3,0,0,0,3-3V15a1,1,0,0,0-2,0V29a1,1,0,0,1-1,1H41l1.8-2.4a1,1,0,0,0-.2-1.4l-4-3a1,1,0,0,0-1.2,0l-1.836,1.377-3.186-3.541.329-.329a1,1,0,0,0-1.414-1.414l-3,3a1,1,0,0,0-.188,1.154L31.382,30H17V27.618l1.447-.723a1,1,0,1,0-.894-1.79l-.932.466a3,3,0,0,0-.448-.628l.728-1.508a1,1,0,0,0-1.8-.87l-.711,1.474a2.926,2.926,0,0,0-.339-.034L14,21.976A1,1,0,0,0,13,21h-.024A1,1,0,0,0,12,22.024l.066,2.7a2.94,2.94,0,0,0-.451.475l-.908-.908a1,1,0,0,0-1.414,1.414L11,27.414V30H5a1,1,0,0,1-1-1V23a1,1,0,0,0-2,0v6a3,3,0,0,0,3,3H19v2H12a3,3,0,0,0-3,3v2a1,1,0,0,0,1,1h4v2H3a1,1,0,0,0-1,1v8a1,1,0,0,0,1,1H23a1,1,0,0,0,1-1V43a1,1,0,0,0-1-1H16V40H27a1,1,0,0,0,0-2H11V37a1,1,0,0,1,1-1H36a1,1,0,0,1,1,1v1H31a1,1,0,0,0,0,2h2v1a1,1,0,0,1-1,1,3,3,0,0,0-3,3v.142A4,4,0,0,0,26,49v4a2,2,0,0,0,2,2h4a2,2,0,0,0,2-2V49a4,4,0,0,0-3-3.858V45a1,1,0,0,1,1-1,3,3,0,0,0,3-3V40h4a3,3,0,0,0,3-3,1,1,0,0,1,1-1h1.171A3,3,0,0,0,47,40a1,1,0,0,1,1,1v1H43a7.008,7.008,0,0,0-7,7v8.752a4.248,4.248,0,0,0,8.438.7l.454-2.717A7.061,7.061,0,0,0,47.877,54h2.246a7.061,7.061,0,0,0,2.985,1.733l.454,2.717a4.248,4.248,0,0,0,8.438-.7V53a1,1,0,0,0-2,0v4.752a2.248,2.248,0,0,1-4.466.369l-.563-3.378a1,1,0,0,0-.818-.821,5.016,5.016,0,0,1-2.862-1.592,1,1,0,0,0-.743-.33h-3.1a1,1,0,0,0-.743.33,5.016,5.016,0,0,1-2.862,1.592,1,1,0,0,0-.818.821l-.563,3.379A2.248,2.248,0,0,1,38,57.752V49a5.006,5.006,0,0,1,5-5H55a5.006,5.006,0,0,1,5,5,1,1,0,0,0,2,0,7.008,7.008,0,0,0-7-7H50V41a3,3,0,0,0-3-3,1,1,0,0,1,0-2H61a1,1,0,0,0,1-1V30a1,1,0,0,0-2,0v4H50V22H60v4a1,1,0,0,0,2,0V11A1,1,0,0,0,61,10ZM14,46H12V44h2Zm-4,0H8V44h2ZM4,44H6v2H4Zm0,4H6v2H4Zm4,0h2v2H8Zm4,0h2v2H12Zm10,2H16V48h6Zm0-4H20V44h2Zm-4,0H16V44h2ZM38,25.25l2.6,1.95-1.216,1.621-2.477-2.752ZM30.217,23.2l.745-.744L37.755,30H33.618ZM13,27a1,1,0,0,1,2,0v3H13Zm8,7V32h6v2ZM32,49v4H28V49a1.993,1.993,0,0,1,1-1.722V48a1,1,0,0,0,2,0v-.722A1.993,1.993,0,0,1,32,49ZM60,12v4H50V12ZM50,20V18H60v2Z"/><path d="M43,52a1,1,0,0,0,1-1V50h1a1,1,0,0,0,0-2H44V47a1,1,0,0,0-2,0v1H41a1,1,0,0,0,0,2h1v1A1,1,0,0,0,43,52Z"/><circle cx="54" cy="47" r="1"/><circle cx="57" cy="49" r="1"/><circle cx="54" cy="51" r="1"/><path d="M52,28a3,3,0,1,0,3-3A3,3,0,0,0,52,28Zm4,0a1,1,0,1,1-1-1A1,1,0,0,1,56,28Z"/><path d="M23,21a1,1,0,0,0,1-1V18.91A6.008,6.008,0,0,0,28.91,14H30a1,1,0,0,0,0-2H28.91A6.008,6.008,0,0,0,24,7.09V6a1,1,0,0,0-2,0V7.09A6.008,6.008,0,0,0,17.09,12H16a1,1,0,0,0,0,2h1.09A6.008,6.008,0,0,0,22,18.91V20A1,1,0,0,0,23,21Zm-3.858-7H20a1,1,0,0,0,0-2h-.858A4,4,0,0,1,22,9.142V10a1,1,0,0,0,2,0V9.142A4,4,0,0,1,26.858,12H26a1,1,0,0,0,0,2h.858A4,4,0,0,1,24,16.858V16a1,1,0,0,0-2,0v.858A4,4,0,0,1,19.142,14Z"/><circle cx="7" cy="7" r="1"/><circle cx="9" cy="7" r="1"/><circle cx="11" cy="7" r="1"/><circle cx="13" cy="7" r="1"/><path d="M12,11a1,1,0,0,0-1-1H7a1,1,0,0,0,0,2h4A1,1,0,0,0,12,11Z"/><path d="M7,14a1,1,0,0,0,0,2H9a1,1,0,0,0,0-2Z"/><path d="M37,8a1,1,0,0,0-1,1v8a1,1,0,0,0,1,1h4a1,1,0,0,0,1-1V9a1,1,0,0,0-1-1Zm1,2h2v2H38Zm2,6H38V14h2Z"/><circle cx="23" cy="13" r="1"/></g></g></svg>
